<svg width="282" height="400" viewBox="0 0 282 400" fill="none" xmlns="http://www.w3.org/2000/svg">
<g clip-path="url(#clip0_8024_33125)">
<rect width="900" height="531.25" transform="translate(0 -108.625)" fill="white"/>
<rect y="-228.484" width="900" height="898.942" fill="white"/>
<mask id="mask0_8024_33125" style="mask-type:alpha" maskUnits="userSpaceOnUse" x="0" y="-229" width="900" height="900">
<rect y="-228.484" width="900" height="898.942" fill="url(#paint0_radial_8024_33125)"/>
</mask>
<g mask="url(#mask0_8024_33125)">
<path d="M-46.1717 249.539L2.99575 222.131L52.1632 249.539V304.296L2.99575 331.705L-46.1717 304.296V249.539Z" stroke="#1967D2" stroke-width="2"/>
<path d="M53.2463 249.539L102.414 222.131L151.581 249.539V304.296L102.414 331.705L53.2463 304.296V249.539Z" stroke="#1967D2" stroke-width="2"/>
<path d="M152.663 249.539L201.831 222.131L250.998 249.539V304.296L201.831 331.705L152.663 304.296V249.539Z" stroke="#1967D2" stroke-width="2"/>
<path d="M252.081 249.539L301.249 222.131L350.416 249.539V304.296L301.249 331.705L252.081 304.296V249.539Z" stroke="#1967D2" stroke-width="2"/>
<path d="M-46.1717 -28.8156L2.99575 -56.2241L52.1632 -28.8156V25.9415L2.99575 53.35L-46.1717 25.9415V-28.8156Z" stroke="#1967D2" stroke-width="2"/>
<path d="M53.2463 -28.8155L102.414 -56.224L151.581 -28.8155V25.9415L102.414 53.35L53.2463 25.9415V-28.8155Z" stroke="#1967D2" stroke-width="2"/>
<path d="M152.663 -28.8155L201.831 -56.224L250.998 -28.8155V25.9415L201.831 53.35L152.663 25.9415V-28.8155Z" stroke="#1967D2" stroke-width="2"/>
<path d="M252.081 -28.8155L301.249 -56.224L350.416 -28.8155V25.9415L301.249 53.35L252.081 25.9415V-28.8155Z" stroke="#1967D2" stroke-width="2"/>
<path d="M-95.4891 388.717L-46.3216 361.308L2.84581 388.717V443.474L-46.3216 470.882L-95.4891 443.474V388.717Z" stroke="#1967D2" stroke-width="2"/>
<path d="M3.9289 388.717L53.0963 361.308L102.264 388.717V443.474L53.0963 470.883L3.9289 443.474V388.717Z" stroke="#1967D2" stroke-width="2"/>
<path d="M103.346 388.717L152.513 361.308L201.681 388.717V443.474L152.513 470.883L103.346 443.474V388.717Z" stroke="#1967D2" stroke-width="2"/>
<path d="M202.764 388.717L251.931 361.308L301.099 388.717V443.474L251.931 470.883L202.764 443.474V388.717Z" stroke="#1967D2" stroke-width="2"/>
<path d="M-95.4891 110.362L-46.3216 82.9534L2.84581 110.362V165.119L-46.3216 192.527L-95.4891 165.119V110.362Z" stroke="#1967D2" stroke-width="2"/>
<path d="M3.9289 110.362L53.0963 82.9534L102.264 110.362V165.119L53.0963 192.527L3.9289 165.119V110.362Z" stroke="#1967D2" stroke-width="2"/>
<path d="M103.346 110.362L152.513 82.9534L201.681 110.362V165.119L152.513 192.527L103.346 165.119V110.362Z" stroke="#1967D2" stroke-width="2"/>
<path d="M202.764 110.362L251.931 82.9534L301.099 110.362V165.119L251.931 192.527L202.764 165.119V110.362Z" stroke="#1967D2" stroke-width="2"/>
<path d="M3.14569 276.906L52.3131 249.497L101.481 276.906V331.663L52.3131 359.071L3.14569 331.663V276.906Z" stroke="#1967D2" stroke-width="2"/>
<path d="M102.564 276.906L151.731 249.497L200.899 276.906V331.663L151.731 359.071L102.564 331.663V276.906Z" stroke="#1967D2" stroke-width="2"/>
<path d="M201.981 276.906L251.148 249.497L300.316 276.906V331.663L251.148 359.071L201.981 331.663V276.906Z" stroke="#1967D2" stroke-width="2"/>
<path d="M3.14569 -1.44924L52.3131 -28.8577L101.481 -1.44924V53.3078L52.3131 80.7163L3.14569 53.3078V-1.44924Z" stroke="#1967D2" stroke-width="2"/>
<path d="M102.564 -1.44924L151.731 -28.8577L200.899 -1.44924V53.3078L151.731 80.7163L102.564 53.3078V-1.44924Z" stroke="#1967D2" stroke-width="2"/>
<path d="M201.981 -1.44924L251.148 -28.8577L300.316 -1.44924V53.3078L251.148 80.7163L201.981 53.3078V-1.44924Z" stroke="#1967D2" stroke-width="2"/>
<path d="M-46.1717 416.083L2.99575 388.675L52.1632 416.083V470.84L2.99575 498.249L-46.1717 470.84V416.083Z" stroke="#1967D2" stroke-width="2"/>
<path d="M53.2463 416.083L102.414 388.675L151.581 416.083V470.84L102.414 498.249L53.2463 470.84V416.083Z" stroke="#1967D2" stroke-width="2"/>
<path d="M152.663 416.083L201.831 388.675L250.998 416.083V470.84L201.831 498.249L152.663 470.84V416.083Z" stroke="#1967D2" stroke-width="2"/>
<path d="M252.081 416.083L301.249 388.675L350.416 416.083V470.84L301.249 498.249L252.081 470.84V416.083Z" stroke="#1967D2" stroke-width="2"/>
<path d="M-46.1717 137.728L2.99575 110.32L52.1632 137.728V192.485L2.99575 219.894L-46.1717 192.485V137.728Z" stroke="#1967D2" stroke-width="2"/>
<path d="M53.2463 137.728L102.414 110.32L151.581 137.728V192.485L102.414 219.894L53.2463 192.485V137.728Z" stroke="#1967D2" stroke-width="2"/>
<path d="M152.663 137.728L201.831 110.32L250.998 137.728V192.485L201.831 219.894L152.663 192.485V137.728Z" stroke="#1967D2" stroke-width="2"/>
<path d="M252.081 137.728L301.249 110.32L350.416 137.728V192.485L301.249 219.894L252.081 192.485V137.728Z" stroke="#1967D2" stroke-width="2"/>
</g>
</g>
<defs>
<radialGradient id="paint0_radial_8024_33125" cx="0" cy="0" r="1" gradientUnits="userSpaceOnUse" gradientTransform="translate(450 220.987) rotate(88.1124) scale(512.301 512.902)">
<stop/>
<stop offset="1" stop-opacity="0"/>
</radialGradient>
<clipPath id="clip0_8024_33125">
<rect width="900" height="531.25" fill="white" transform="translate(0 -108.625)"/>
</clipPath>
</defs>
</svg>
