<svg width="174" height="32" viewBox="0 0 174 32" fill="none" xmlns="http://www.w3.org/2000/svg">
<g clip-path="url(#clip0_8024_34926)">
<mask id="mask0_8024_34926" style="mask-type:luminance" maskUnits="userSpaceOnUse" x="0" y="0" width="173" height="32">
<path d="M172.832 0H0.599609V32H172.832V0Z" fill="white"/>
</mask>
<g mask="url(#mask0_8024_34926)">
<path fill-rule="evenodd" clip-rule="evenodd" d="M164.755 21.0309C166.408 21.0309 167.21 20.0668 167.266 17.9767L167.274 17.9848H172.84C172.808 19.443 172.678 20.8526 171.674 22.0678C170.215 23.8177 167.663 24.5792 164.885 24.5792C158.387 24.5792 156.249 21.2334 156.249 16.0486C156.249 12.2086 157.634 7.51794 164.885 7.51794C168.134 7.51794 170.394 8.2795 171.528 9.6243C172.338 10.5883 172.606 11.5767 172.622 13.9585H167.056C166.91 11.9656 166.23 11.0663 164.755 11.0663C162.641 11.0663 161.92 13.3589 161.92 16.0486C161.92 18.7382 162.633 21.0309 164.755 21.0309ZM54.5536 18.803H54.5941L57.2108 7.93923H65.5308V24.1499H60.4676V11.9575H60.4271L56.8706 24.1499H51.5967L48.259 11.9575H48.2023V24.1499H43.5684V7.93923H51.8478L54.5536 18.803ZM76.0139 20.8932C77.6665 20.8932 78.5253 19.921 78.5253 16.8263V7.93923H83.6936V17.4096C83.6936 19.9696 83.2968 21.0471 82.4544 22.1489C81.1504 23.8501 78.8817 24.5711 75.9572 24.5711C73.0326 24.5711 70.7724 23.8582 69.46 22.1489C68.6175 21.0471 68.2205 19.9696 68.2205 17.4096V7.93923H73.5025V16.8263C73.5025 19.9291 74.3612 20.8932 76.0139 20.8932ZM91.836 7.93923H86.3752V24.1499H97.8144V20.1965H91.836V7.93923ZM100.528 11.8926H96.2672V7.93923H110.242V11.8926H105.981V24.1499H100.528V11.8926ZM118.246 7.93923H112.786V24.1499H118.246V7.93923ZM129.895 18.1793L133.217 7.93923H138.79L133.063 24.1499H126.379L120.652 7.93923H126.671L129.895 18.1793ZM142.574 7.93923L135.963 24.1499H141.31L142.314 21.4602H149.014L149.962 24.1499H155.974L149.362 7.93923H142.574ZM143.635 17.9038L145.734 12.2491L147.742 17.9038H143.635Z" fill="#586772"/>
<path fill-rule="evenodd" clip-rule="evenodd" d="M8.58746 0H32.5996V24.0122C32.5996 28.4193 29.027 32 24.6118 32H0.599609V7.98785C0.599609 3.58076 4.18037 0 8.58746 0ZM10.2239 9.5596C8.28771 9.5596 6.72417 11.1231 6.72417 13.0512V22.4406H11.674V12.8162H14.3798V22.4406H19.1677V12.8162H22.0599V22.4406H26.467V9.5596H10.2239Z" fill="#586772"/>
</g>
</g>
<defs>
<clipPath id="clip0_8024_34926">
<rect width="172.8" height="32" fill="white" transform="translate(0.599609)"/>
</clipPath>
</defs>
</svg>
