<svg width="1440" height="948" viewBox="0 0 1440 948" fill="none" xmlns="http://www.w3.org/2000/svg">
<path d="M22.521 1007.34L-18.0847 925.2L22.521 843.062H103.479L144.084 925.2L103.479 1007.34H22.521Z" stroke="#051C2C" stroke-width="2"/>
<path d="M22.521 761.338L-18.0847 679.2L22.521 597.062H103.479L144.084 679.2L103.479 761.338H22.521Z" stroke="#051C2C" stroke-width="2"/>
<path d="M22.521 515.338L-18.0847 433.2L22.521 351.062H103.479L144.084 433.2L103.479 515.338H22.521Z" stroke="#051C2C" stroke-width="2"/>
<path d="M22.521 269.338L-18.0847 187.2L22.521 105.062H103.479L144.084 187.2L103.479 269.338H22.521Z" stroke="#051C2C" stroke-width="2"/>
<path d="M22.521 23.3384L-18.0847 -58.8L22.521 -140.938H103.479L144.084 -58.8L103.479 23.3384L22.521 23.3384Z" stroke="#051C2C" stroke-width="2"/>
<path d="M22.521 1088.94L-18.0847 1006.8L22.521 924.661H103.479L144.084 1006.8L103.479 1088.94H22.521Z" stroke="#051C2C" stroke-width="2"/>
<path d="M22.521 842.938L-18.0847 760.8L22.521 678.661H103.479L144.084 760.8L103.479 842.938H22.521Z" stroke="#051C2C" stroke-width="2"/>
<path d="M22.521 596.938L-18.0847 514.8L22.521 432.661H103.479L144.084 514.8L103.479 596.938H22.521Z" stroke="#051C2C" stroke-width="2"/>
<path d="M22.521 350.938L-18.0847 268.8L22.521 186.661H103.479L144.084 268.8L103.479 350.938H22.521Z" stroke="#051C2C" stroke-width="2"/>
<path d="M22.521 104.938L-18.0847 22.7999L22.521 -59.3385H103.479L144.084 22.7999L103.479 104.938H22.521Z" stroke="#051C2C" stroke-width="2"/>
<path d="M22.521 925.739L-18.0847 843.6L22.521 761.462H103.479L144.084 843.6L103.479 925.739H22.521Z" stroke="#051C2C" stroke-width="2"/>
<path d="M22.521 679.739L-18.0847 597.6L22.521 515.462H103.479L144.084 597.6L103.479 679.739H22.521Z" stroke="#051C2C" stroke-width="2"/>
<path d="M22.521 433.739L-18.0847 351.6L22.521 269.462H103.479L144.084 351.6L103.479 433.739H22.521Z" stroke="#051C2C" stroke-width="2"/>
<path d="M22.521 187.738L-18.0847 105.6L22.521 23.4615H103.479L144.084 105.6L103.479 187.738H22.521Z" stroke="#051C2C" stroke-width="2"/>
<path d="M186.921 1007.34L146.316 925.2L186.921 843.062H267.879L308.485 925.2L267.879 1007.34H186.921Z" stroke="#051C2C" stroke-width="2"/>
<path d="M186.921 761.338L146.316 679.2L186.921 597.062H267.879L308.485 679.2L267.879 761.338H186.921Z" stroke="#051C2C" stroke-width="2"/>
<path d="M186.921 515.338L146.316 433.2L186.921 351.062H267.879L308.485 433.2L267.879 515.338H186.921Z" stroke="#051C2C" stroke-width="2"/>
<path d="M186.921 269.338L146.316 187.2L186.921 105.062H267.879L308.485 187.2L267.879 269.338H186.921Z" stroke="#051C2C" stroke-width="2"/>
<path d="M186.921 23.3384L146.316 -58.8L186.921 -140.938H267.879L308.485 -58.8L267.879 23.3384L186.921 23.3384Z" stroke="#051C2C" stroke-width="2"/>
<path d="M186.921 1088.94L146.316 1006.8L186.921 924.661H267.879L308.485 1006.8L267.879 1088.94H186.921Z" stroke="#051C2C" stroke-width="2"/>
<path d="M186.921 842.938L146.316 760.8L186.921 678.661H267.879L308.485 760.8L267.879 842.938H186.921Z" stroke="#051C2C" stroke-width="2"/>
<path d="M186.921 596.938L146.316 514.8L186.921 432.661H267.879L308.485 514.8L267.879 596.938H186.921Z" stroke="#051C2C" stroke-width="2"/>
<path d="M186.921 350.938L146.316 268.8L186.921 186.661H267.879L308.485 268.8L267.879 350.938H186.921Z" stroke="#051C2C" stroke-width="2"/>
<path d="M186.921 104.938L146.316 22.7999L186.921 -59.3385H267.879L308.485 22.7999L267.879 104.938H186.921Z" stroke="#051C2C" stroke-width="2"/>
<path d="M186.921 925.739L146.316 843.6L186.921 761.462H267.879L308.485 843.6L267.879 925.739H186.921Z" stroke="#051C2C" stroke-width="2"/>
<path d="M186.921 679.739L146.316 597.6L186.921 515.462H267.879L308.485 597.6L267.879 679.739H186.921Z" stroke="#051C2C" stroke-width="2"/>
<path d="M186.921 433.739L146.316 351.6L186.921 269.462H267.879L308.485 351.6L267.879 433.739H186.921Z" stroke="#051C2C" stroke-width="2"/>
<path d="M186.921 187.738L146.316 105.6L186.921 23.4615H267.879L308.485 105.6L267.879 187.738H186.921Z" stroke="#051C2C" stroke-width="2"/>
<path d="M351.321 1007.34L310.715 925.2L351.321 843.062H432.278L472.884 925.2L432.278 1007.34H351.321Z" stroke="#051C2C" stroke-width="2"/>
<path d="M351.321 761.338L310.715 679.2L351.321 597.062H432.278L472.884 679.2L432.278 761.338H351.321Z" stroke="#051C2C" stroke-width="2"/>
<path d="M351.321 515.338L310.715 433.2L351.321 351.062H432.278L472.884 433.2L432.278 515.338H351.321Z" stroke="#051C2C" stroke-width="2"/>
<path d="M351.321 269.338L310.715 187.2L351.321 105.062H432.278L472.884 187.2L432.278 269.338H351.321Z" stroke="#051C2C" stroke-width="2"/>
<path d="M351.321 23.3384L310.715 -58.8L351.321 -140.938H432.278L472.884 -58.8L432.278 23.3384L351.321 23.3384Z" stroke="#051C2C" stroke-width="2"/>
<path d="M351.321 1088.94L310.715 1006.8L351.321 924.661H432.278L472.884 1006.8L432.278 1088.94H351.321Z" stroke="#051C2C" stroke-width="2"/>
<path d="M351.321 842.938L310.715 760.8L351.321 678.661H432.278L472.884 760.8L432.278 842.938H351.321Z" stroke="#051C2C" stroke-width="2"/>
<path d="M351.321 596.938L310.715 514.8L351.321 432.661H432.278L472.884 514.8L432.278 596.938H351.321Z" stroke="#051C2C" stroke-width="2"/>
<path d="M351.321 350.938L310.715 268.8L351.321 186.661H432.278L472.884 268.8L432.278 350.938H351.321Z" stroke="#051C2C" stroke-width="2"/>
<path d="M351.321 104.938L310.715 22.7999L351.321 -59.3385H432.278L472.884 22.7999L432.278 104.938H351.321Z" stroke="#051C2C" stroke-width="2"/>
<path d="M351.321 925.739L310.715 843.6L351.321 761.462H432.278L472.884 843.6L432.278 925.739H351.321Z" stroke="#051C2C" stroke-width="2"/>
<path d="M351.321 679.739L310.715 597.6L351.321 515.462H432.278L472.884 597.6L432.278 679.739H351.321Z" stroke="#051C2C" stroke-width="2"/>
<path d="M351.321 433.739L310.715 351.6L351.321 269.462H432.278L472.884 351.6L432.278 433.739H351.321Z" stroke="#051C2C" stroke-width="2"/>
<path d="M351.321 187.738L310.715 105.6L351.321 23.4615H432.278L472.884 105.6L432.278 187.738H351.321Z" stroke="#051C2C" stroke-width="2"/>
<path d="M515.721 1007.34L475.116 925.2L515.721 843.062H596.679L637.284 925.2L596.679 1007.34H515.721Z" stroke="#051C2C" stroke-width="2"/>
<path d="M515.721 761.338L475.116 679.2L515.721 597.062H596.679L637.284 679.2L596.679 761.338H515.721Z" stroke="#051C2C" stroke-width="2"/>
<path d="M515.721 515.338L475.116 433.2L515.721 351.062H596.679L637.284 433.2L596.679 515.338H515.721Z" stroke="#051C2C" stroke-width="2"/>
<path d="M515.721 269.338L475.116 187.2L515.721 105.062H596.679L637.284 187.2L596.679 269.338H515.721Z" stroke="#051C2C" stroke-width="2"/>
<path d="M515.721 23.3384L475.116 -58.8L515.721 -140.938H596.679L637.284 -58.8L596.679 23.3384L515.721 23.3384Z" stroke="#051C2C" stroke-width="2"/>
<path d="M515.721 1088.94L475.116 1006.8L515.721 924.661H596.679L637.284 1006.8L596.679 1088.94H515.721Z" stroke="#051C2C" stroke-width="2"/>
<path d="M515.721 842.938L475.116 760.8L515.721 678.661H596.679L637.284 760.8L596.679 842.938H515.721Z" stroke="#051C2C" stroke-width="2"/>
<path d="M515.721 596.938L475.116 514.8L515.721 432.661H596.679L637.284 514.8L596.679 596.938H515.721Z" stroke="#051C2C" stroke-width="2"/>
<path d="M515.721 350.938L475.116 268.8L515.721 186.661H596.679L637.284 268.8L596.679 350.938H515.721Z" stroke="#051C2C" stroke-width="2"/>
<path d="M515.721 104.938L475.116 22.7999L515.721 -59.3385H596.679L637.284 22.7999L596.679 104.938H515.721Z" stroke="#051C2C" stroke-width="2"/>
<path d="M515.721 925.739L475.116 843.6L515.721 761.462H596.679L637.284 843.6L596.679 925.739H515.721Z" stroke="#051C2C" stroke-width="2"/>
<path d="M515.721 679.739L475.116 597.6L515.721 515.462H596.679L637.284 597.6L596.679 679.739H515.721Z" stroke="#051C2C" stroke-width="2"/>
<path d="M515.721 433.739L475.116 351.6L515.721 269.462H596.679L637.284 351.6L596.679 433.739H515.721Z" stroke="#051C2C" stroke-width="2"/>
<path d="M515.721 187.738L475.116 105.6L515.721 23.4615H596.679L637.284 105.6L596.679 187.738H515.721Z" stroke="#051C2C" stroke-width="2"/>
<path d="M680.121 1007.34L639.515 925.2L680.121 843.062H761.078L801.684 925.2L761.078 1007.34H680.121Z" stroke="#051C2C" stroke-width="2"/>
<path d="M680.121 761.338L639.515 679.2L680.121 597.062H761.078L801.684 679.2L761.078 761.338H680.121Z" stroke="#051C2C" stroke-width="2"/>
<path d="M680.121 515.338L639.515 433.2L680.121 351.062H761.078L801.684 433.2L761.078 515.338H680.121Z" stroke="#051C2C" stroke-width="2"/>
<path d="M680.121 269.338L639.515 187.2L680.121 105.062H761.078L801.684 187.2L761.078 269.338H680.121Z" stroke="#051C2C" stroke-width="2"/>
<path d="M680.121 23.3384L639.515 -58.8L680.121 -140.938H761.078L801.684 -58.8L761.078 23.3384L680.121 23.3384Z" stroke="#051C2C" stroke-width="2"/>
<path d="M680.121 1088.94L639.515 1006.8L680.121 924.661H761.078L801.684 1006.8L761.078 1088.94H680.121Z" stroke="#051C2C" stroke-width="2"/>
<path d="M680.121 842.938L639.515 760.8L680.121 678.661H761.078L801.684 760.8L761.078 842.938H680.121Z" stroke="#051C2C" stroke-width="2"/>
<path d="M680.121 596.938L639.515 514.8L680.121 432.661H761.078L801.684 514.8L761.078 596.938H680.121Z" stroke="#051C2C" stroke-width="2"/>
<path d="M680.121 350.938L639.515 268.8L680.121 186.661H761.078L801.684 268.8L761.078 350.938H680.121Z" stroke="#051C2C" stroke-width="2"/>
<path d="M680.121 104.938L639.515 22.7999L680.121 -59.3385H761.078L801.684 22.7999L761.078 104.938H680.121Z" stroke="#051C2C" stroke-width="2"/>
<path d="M680.121 925.739L639.515 843.6L680.121 761.462H761.078L801.684 843.6L761.078 925.739H680.121Z" stroke="#051C2C" stroke-width="2"/>
<path d="M680.121 679.739L639.515 597.6L680.121 515.462H761.078L801.684 597.6L761.078 679.739H680.121Z" stroke="#051C2C" stroke-width="2"/>
<path d="M680.121 433.739L639.515 351.6L680.121 269.462H761.078L801.684 351.6L761.078 433.739H680.121Z" stroke="#051C2C" stroke-width="2"/>
<path d="M680.121 187.738L639.515 105.6L680.121 23.4615H761.078L801.684 105.6L761.078 187.738H680.121Z" stroke="#051C2C" stroke-width="2"/>
<path d="M844.521 1007.34L803.915 925.2L844.521 843.062H925.479L966.084 925.2L925.479 1007.34H844.521Z" stroke="#051C2C" stroke-width="2"/>
<path d="M844.521 761.338L803.915 679.2L844.521 597.062H925.479L966.084 679.2L925.479 761.338H844.521Z" stroke="#051C2C" stroke-width="2"/>
<path d="M844.521 515.338L803.915 433.2L844.521 351.062H925.479L966.084 433.2L925.479 515.338H844.521Z" stroke="#051C2C" stroke-width="2"/>
<path d="M844.521 269.338L803.915 187.2L844.521 105.062H925.479L966.084 187.2L925.479 269.338H844.521Z" stroke="#051C2C" stroke-width="2"/>
<path d="M844.521 23.3384L803.915 -58.8L844.521 -140.938H925.479L966.084 -58.8L925.479 23.3384L844.521 23.3384Z" stroke="#051C2C" stroke-width="2"/>
<path d="M844.521 1088.94L803.915 1006.8L844.521 924.661H925.479L966.084 1006.8L925.479 1088.94H844.521Z" stroke="#051C2C" stroke-width="2"/>
<path d="M844.521 842.938L803.915 760.8L844.521 678.661H925.479L966.084 760.8L925.479 842.938H844.521Z" stroke="#051C2C" stroke-width="2"/>
<path d="M844.521 596.938L803.915 514.8L844.521 432.661H925.479L966.084 514.8L925.479 596.938H844.521Z" stroke="#051C2C" stroke-width="2"/>
<path d="M844.521 350.938L803.915 268.8L844.521 186.661H925.479L966.084 268.8L925.479 350.938H844.521Z" stroke="#051C2C" stroke-width="2"/>
<path d="M844.521 104.938L803.915 22.7999L844.521 -59.3385H925.479L966.084 22.7999L925.479 104.938H844.521Z" stroke="#051C2C" stroke-width="2"/>
<path d="M844.521 925.739L803.915 843.6L844.521 761.462H925.479L966.084 843.6L925.479 925.739H844.521Z" stroke="#051C2C" stroke-width="2"/>
<path d="M844.521 679.739L803.915 597.6L844.521 515.462H925.479L966.084 597.6L925.479 679.739H844.521Z" stroke="#051C2C" stroke-width="2"/>
<path d="M844.521 433.739L803.915 351.6L844.521 269.462H925.479L966.084 351.6L925.479 433.739H844.521Z" stroke="#051C2C" stroke-width="2"/>
<path d="M844.521 187.738L803.915 105.6L844.521 23.4615H925.479L966.084 105.6L925.479 187.738H844.521Z" stroke="#051C2C" stroke-width="2"/>
<path d="M1008.92 1007.34L968.316 925.2L1008.92 843.062H1089.88L1130.48 925.2L1089.88 1007.34H1008.92Z" stroke="#051C2C" stroke-width="2"/>
<path d="M1008.92 761.338L968.316 679.2L1008.92 597.062H1089.88L1130.48 679.2L1089.88 761.338H1008.92Z" stroke="#051C2C" stroke-width="2"/>
<path d="M1008.92 515.338L968.316 433.2L1008.92 351.062H1089.88L1130.48 433.2L1089.88 515.338H1008.92Z" stroke="#051C2C" stroke-width="2"/>
<path d="M1008.92 269.338L968.316 187.2L1008.92 105.062H1089.88L1130.48 187.2L1089.88 269.338H1008.92Z" stroke="#051C2C" stroke-width="2"/>
<path d="M1008.92 23.3384L968.316 -58.8L1008.92 -140.938H1089.88L1130.48 -58.8L1089.88 23.3384L1008.92 23.3384Z" stroke="#051C2C" stroke-width="2"/>
<path d="M1008.92 1088.94L968.316 1006.8L1008.92 924.661H1089.88L1130.48 1006.8L1089.88 1088.94H1008.92Z" stroke="#051C2C" stroke-width="2"/>
<path d="M1008.92 842.938L968.316 760.8L1008.92 678.661H1089.88L1130.48 760.8L1089.88 842.938H1008.92Z" stroke="#051C2C" stroke-width="2"/>
<path d="M1008.92 596.938L968.316 514.8L1008.92 432.661H1089.88L1130.48 514.8L1089.88 596.938H1008.92Z" stroke="#051C2C" stroke-width="2"/>
<path d="M1008.92 350.938L968.316 268.8L1008.92 186.661H1089.88L1130.48 268.8L1089.88 350.938H1008.92Z" stroke="#051C2C" stroke-width="2"/>
<path d="M1008.92 104.938L968.316 22.7999L1008.92 -59.3385H1089.88L1130.48 22.7999L1089.88 104.938H1008.92Z" stroke="#051C2C" stroke-width="2"/>
<path d="M1008.92 925.739L968.316 843.6L1008.92 761.462H1089.88L1130.48 843.6L1089.88 925.739H1008.92Z" stroke="#051C2C" stroke-width="2"/>
<path d="M1008.92 679.739L968.316 597.6L1008.92 515.462H1089.88L1130.48 597.6L1089.88 679.739H1008.92Z" stroke="#051C2C" stroke-width="2"/>
<path d="M1008.92 433.739L968.316 351.6L1008.92 269.462H1089.88L1130.48 351.6L1089.88 433.739H1008.92Z" stroke="#051C2C" stroke-width="2"/>
<path d="M1008.92 187.738L968.316 105.6L1008.92 23.4615H1089.88L1130.48 105.6L1089.88 187.738H1008.92Z" stroke="#051C2C" stroke-width="2"/>
<path d="M1173.32 1007.34L1132.72 925.2L1173.32 843.062H1254.28L1294.88 925.2L1254.28 1007.34H1173.32Z" stroke="#051C2C" stroke-width="2"/>
<path d="M1173.32 761.338L1132.72 679.2L1173.32 597.062H1254.28L1294.88 679.2L1254.28 761.338H1173.32Z" stroke="#051C2C" stroke-width="2"/>
<path d="M1173.32 515.338L1132.72 433.2L1173.32 351.062H1254.28L1294.88 433.2L1254.28 515.338H1173.32Z" stroke="#051C2C" stroke-width="2"/>
<path d="M1173.32 269.338L1132.72 187.2L1173.32 105.062H1254.28L1294.88 187.2L1254.28 269.338H1173.32Z" stroke="#051C2C" stroke-width="2"/>
<path d="M1173.32 23.3384L1132.72 -58.8L1173.32 -140.938H1254.28L1294.88 -58.8L1254.28 23.3384L1173.32 23.3384Z" stroke="#051C2C" stroke-width="2"/>
<path d="M1173.32 1088.94L1132.72 1006.8L1173.32 924.661H1254.28L1294.88 1006.8L1254.28 1088.94H1173.32Z" stroke="#051C2C" stroke-width="2"/>
<path d="M1173.32 842.938L1132.72 760.8L1173.32 678.661H1254.28L1294.88 760.8L1254.28 842.938H1173.32Z" stroke="#051C2C" stroke-width="2"/>
<path d="M1173.32 596.938L1132.72 514.8L1173.32 432.661H1254.28L1294.88 514.8L1254.28 596.938H1173.32Z" stroke="#051C2C" stroke-width="2"/>
<path d="M1173.32 350.938L1132.72 268.8L1173.32 186.661H1254.28L1294.88 268.8L1254.28 350.938H1173.32Z" stroke="#051C2C" stroke-width="2"/>
<path d="M1173.32 104.938L1132.72 22.7999L1173.32 -59.3385H1254.28L1294.88 22.7999L1254.28 104.938H1173.32Z" stroke="#051C2C" stroke-width="2"/>
<path d="M1173.32 925.739L1132.72 843.6L1173.32 761.462H1254.28L1294.88 843.6L1254.28 925.739H1173.32Z" stroke="#051C2C" stroke-width="2"/>
<path d="M1173.32 679.739L1132.72 597.6L1173.32 515.462H1254.28L1294.88 597.6L1254.28 679.739H1173.32Z" stroke="#051C2C" stroke-width="2"/>
<path d="M1173.32 433.739L1132.72 351.6L1173.32 269.462H1254.28L1294.88 351.6L1254.28 433.739H1173.32Z" stroke="#051C2C" stroke-width="2"/>
<path d="M1173.32 187.738L1132.72 105.6L1173.32 23.4615H1254.28L1294.88 105.6L1254.28 187.738H1173.32Z" stroke="#051C2C" stroke-width="2"/>
<path d="M1337.72 1007.34L1297.12 925.2L1337.72 843.062H1418.68L1459.28 925.2L1418.68 1007.34H1337.72Z" stroke="#051C2C" stroke-width="2"/>
<path d="M1337.72 761.338L1297.12 679.2L1337.72 597.062H1418.68L1459.28 679.2L1418.68 761.338H1337.72Z" stroke="#051C2C" stroke-width="2"/>
<path d="M1337.72 515.338L1297.12 433.2L1337.72 351.062H1418.68L1459.28 433.2L1418.68 515.338H1337.72Z" stroke="#051C2C" stroke-width="2"/>
<path d="M1337.72 269.338L1297.12 187.2L1337.72 105.062H1418.68L1459.28 187.2L1418.68 269.338H1337.72Z" stroke="#051C2C" stroke-width="2"/>
<path d="M1337.72 23.3384L1297.12 -58.8L1337.72 -140.938H1418.68L1459.28 -58.8L1418.68 23.3384L1337.72 23.3384Z" stroke="#051C2C" stroke-width="2"/>
<path d="M1337.72 1088.94L1297.12 1006.8L1337.72 924.661H1418.68L1459.28 1006.8L1418.68 1088.94H1337.72Z" stroke="#051C2C" stroke-width="2"/>
<path d="M1337.72 842.938L1297.12 760.8L1337.72 678.661H1418.68L1459.28 760.8L1418.68 842.938H1337.72Z" stroke="#051C2C" stroke-width="2"/>
<path d="M1337.72 596.938L1297.12 514.8L1337.72 432.661H1418.68L1459.28 514.8L1418.68 596.938H1337.72Z" stroke="#051C2C" stroke-width="2"/>
<path d="M1337.72 350.938L1297.12 268.8L1337.72 186.661H1418.68L1459.28 268.8L1418.68 350.938H1337.72Z" stroke="#051C2C" stroke-width="2"/>
<path d="M1337.72 104.938L1297.12 22.7999L1337.72 -59.3385H1418.68L1459.28 22.7999L1418.68 104.938H1337.72Z" stroke="#051C2C" stroke-width="2"/>
<path d="M1337.72 925.739L1297.12 843.6L1337.72 761.462H1418.68L1459.28 843.6L1418.68 925.739H1337.72Z" stroke="#051C2C" stroke-width="2"/>
<path d="M1337.72 679.739L1297.12 597.6L1337.72 515.462H1418.68L1459.28 597.6L1418.68 679.739H1337.72Z" stroke="#051C2C" stroke-width="2"/>
<path d="M1337.72 433.739L1297.12 351.6L1337.72 269.462H1418.68L1459.28 351.6L1418.68 433.739H1337.72Z" stroke="#051C2C" stroke-width="2"/>
<path d="M1337.72 187.738L1297.12 105.6L1337.72 23.4615H1418.68L1459.28 105.6L1418.68 187.738H1337.72Z" stroke="#051C2C" stroke-width="2"/>
</svg>
